<mxfile modified="2020-07-28T12:02:53.788Z" host="app.diagrams.net" agent="5.0 (Windows NT 10.0; Win64; x64) AppleWebKit/537.36 (KHTML, like Gecko) Chrome/84.0.4147.89 Safari/537.36" etag="Mg2-Ai2hW-gjFGz6PknI" version="13.5.4" type="github">
  <diagram id="l2aKFoh6-Bn0gOPZ2l0T" name="Page-1">
    <mxGraphModel dx="868" dy="482" grid="1" gridSize="10" guides="1" tooltips="1" connect="1" arrows="1" fold="1" page="1" pageScale="1" pageWidth="1169" pageHeight="827" math="0" shadow="0">
      <root>
        <mxCell id="0" />
        <mxCell id="1" parent="0" />
        <mxCell id="mpq5AgpwV83IM184FDqD-40" value="MCASH UGANDA SERVERS TOPOLOGY" style="text;html=1;resizable=1;points=[];autosize=0;align=left;verticalAlign=top;spacingTop=-4;fontSize=20;fontStyle=1" parent="1" vertex="1">
          <mxGeometry x="40" y="40" width="580" height="30" as="geometry" />
        </mxCell>
        <mxCell id="mpq5AgpwV83IM184FDqD-41" value="Location:" style="text;html=1;resizable=1;points=[];autosize=0;align=left;verticalAlign=middle;spacingTop=-4;fontSize=14;fontStyle=0" parent="1" vertex="1">
          <mxGeometry x="40" y="80" width="580" height="30" as="geometry" />
        </mxCell>
        <mxCell id="mpq5AgpwV83IM184FDqD-42" value="Investor:" style="text;html=1;resizable=1;points=[];autosize=0;align=left;verticalAlign=middle;spacingTop=-4;fontSize=14;fontStyle=0" parent="1" vertex="1">
          <mxGeometry x="40" y="100" width="580" height="30" as="geometry" />
        </mxCell>
        <mxCell id="IGD-j1G_IqfU7hNhVimZ-35" style="rounded=0;orthogonalLoop=1;jettySize=auto;html=1;endArrow=none;endFill=0;" edge="1" parent="1" source="IGD-j1G_IqfU7hNhVimZ-1" target="IGD-j1G_IqfU7hNhVimZ-4">
          <mxGeometry relative="1" as="geometry" />
        </mxCell>
        <object label="" id="IGD-j1G_IqfU7hNhVimZ-1">
          <mxCell style="fontColor=#0066CC;verticalAlign=top;verticalLabelPosition=bottom;labelPosition=center;align=center;html=1;outlineConnect=0;fillColor=#CCCCCC;strokeColor=#6881B3;gradientColor=none;gradientDirection=north;strokeWidth=2;shape=mxgraph.networks.web_server;" vertex="1" parent="1">
            <mxGeometry x="180" y="170" width="105" height="105" as="geometry" />
          </mxCell>
        </object>
        <mxCell id="IGD-j1G_IqfU7hNhVimZ-2" value="" style="fontColor=#0066CC;verticalAlign=top;verticalLabelPosition=bottom;labelPosition=center;align=center;html=1;outlineConnect=0;fillColor=#CCCCCC;strokeColor=#6881B3;gradientColor=none;gradientDirection=north;strokeWidth=2;shape=mxgraph.networks.users;rotation=-1;" vertex="1" parent="1">
          <mxGeometry x="10" y="320" width="90" height="100" as="geometry" />
        </mxCell>
        <mxCell id="IGD-j1G_IqfU7hNhVimZ-36" style="edgeStyle=none;rounded=0;orthogonalLoop=1;jettySize=auto;html=1;endArrow=none;endFill=0;" edge="1" parent="1" source="IGD-j1G_IqfU7hNhVimZ-4" target="IGD-j1G_IqfU7hNhVimZ-29">
          <mxGeometry relative="1" as="geometry" />
        </mxCell>
        <mxCell id="IGD-j1G_IqfU7hNhVimZ-4" value="" style="fontColor=#0066CC;verticalAlign=top;verticalLabelPosition=bottom;labelPosition=center;align=center;html=1;outlineConnect=0;fillColor=#CCCCCC;strokeColor=#6881B3;gradientColor=none;gradientDirection=north;strokeWidth=2;shape=mxgraph.networks.server;rotation=-2;" vertex="1" parent="1">
          <mxGeometry x="360" y="230" width="90" height="100" as="geometry" />
        </mxCell>
        <mxCell id="IGD-j1G_IqfU7hNhVimZ-5" value="" style="fontColor=#0066CC;verticalAlign=top;verticalLabelPosition=bottom;labelPosition=center;align=center;html=1;outlineConnect=0;fillColor=#CCCCCC;strokeColor=#6881B3;gradientColor=none;gradientDirection=north;strokeWidth=2;shape=mxgraph.networks.server;" vertex="1" parent="1">
          <mxGeometry x="350" y="410" width="90" height="100" as="geometry" />
        </mxCell>
        <mxCell id="IGD-j1G_IqfU7hNhVimZ-7" value="devices" style="outlineConnect=0;gradientColor=none;fontColor=#545B64;strokeColor=none;fillColor=#879196;dashed=0;verticalLabelPosition=bottom;verticalAlign=top;align=center;html=1;fontSize=12;fontStyle=0;aspect=fixed;shape=mxgraph.aws4.illustration_devices;pointerEvents=1" vertex="1" parent="1">
          <mxGeometry x="5" y="147" width="100" height="73" as="geometry" />
        </mxCell>
        <mxCell id="IGD-j1G_IqfU7hNhVimZ-38" style="edgeStyle=none;rounded=0;orthogonalLoop=1;jettySize=auto;html=1;endArrow=none;endFill=0;" edge="1" parent="1" source="IGD-j1G_IqfU7hNhVimZ-29" target="IGD-j1G_IqfU7hNhVimZ-5">
          <mxGeometry relative="1" as="geometry" />
        </mxCell>
        <mxCell id="IGD-j1G_IqfU7hNhVimZ-41" style="edgeStyle=none;rounded=0;orthogonalLoop=1;jettySize=auto;html=1;endArrow=none;endFill=0;exitX=0.88;exitY=0.5;exitDx=0;exitDy=0;exitPerimeter=0;" edge="1" parent="1" source="IGD-j1G_IqfU7hNhVimZ-29" target="IGD-j1G_IqfU7hNhVimZ-40">
          <mxGeometry relative="1" as="geometry" />
        </mxCell>
        <mxCell id="IGD-j1G_IqfU7hNhVimZ-29" value="" style="fontColor=#0066CC;verticalAlign=top;verticalLabelPosition=bottom;labelPosition=center;align=center;html=1;outlineConnect=0;fillColor=#CCCCCC;strokeColor=#6881B3;gradientColor=none;gradientDirection=north;strokeWidth=2;shape=mxgraph.networks.server_storage;" vertex="1" parent="1">
          <mxGeometry x="560" y="240" width="105" height="85" as="geometry" />
        </mxCell>
        <mxCell id="IGD-j1G_IqfU7hNhVimZ-33" value="" style="html=1;outlineConnect=0;fillColor=#CCCCCC;strokeColor=#6881B3;gradientColor=none;gradientDirection=north;strokeWidth=2;shape=mxgraph.networks.comm_link_edge;html=1;" edge="1" parent="1" source="IGD-j1G_IqfU7hNhVimZ-7" target="IGD-j1G_IqfU7hNhVimZ-1">
          <mxGeometry width="100" height="100" relative="1" as="geometry">
            <mxPoint x="140" y="260" as="sourcePoint" />
            <mxPoint x="240" y="160" as="targetPoint" />
          </mxGeometry>
        </mxCell>
        <mxCell id="IGD-j1G_IqfU7hNhVimZ-34" value="" style="html=1;outlineConnect=0;fillColor=#CCCCCC;strokeColor=#6881B3;gradientColor=none;gradientDirection=north;strokeWidth=2;shape=mxgraph.networks.comm_link_edge;html=1;" edge="1" parent="1">
          <mxGeometry width="100" height="100" relative="1" as="geometry">
            <mxPoint x="80" y="325" as="sourcePoint" />
            <mxPoint x="180" y="225" as="targetPoint" />
          </mxGeometry>
        </mxCell>
        <mxCell id="IGD-j1G_IqfU7hNhVimZ-39" value="" style="fontColor=#0066CC;verticalAlign=top;verticalLabelPosition=bottom;labelPosition=center;align=center;html=1;outlineConnect=0;fillColor=#CCCCCC;strokeColor=#6881B3;gradientColor=none;gradientDirection=north;strokeWidth=2;shape=mxgraph.networks.server;" vertex="1" parent="1">
          <mxGeometry x="575" y="390" width="90" height="100" as="geometry" />
        </mxCell>
        <mxCell id="IGD-j1G_IqfU7hNhVimZ-40" value="" style="fontColor=#0066CC;verticalAlign=top;verticalLabelPosition=bottom;labelPosition=center;align=center;html=1;outlineConnect=0;fillColor=#CCCCCC;strokeColor=#6881B3;gradientColor=none;gradientDirection=north;strokeWidth=2;shape=mxgraph.networks.server;" vertex="1" parent="1">
          <mxGeometry x="770" y="230" width="90" height="100" as="geometry" />
        </mxCell>
        <mxCell id="IGD-j1G_IqfU7hNhVimZ-43" value="WEB SERVER" style="text;html=1;resizable=0;autosize=1;align=center;verticalAlign=middle;points=[];fillColor=none;strokeColor=none;rounded=0;" vertex="1" parent="1">
          <mxGeometry x="180" y="275" width="100" height="20" as="geometry" />
        </mxCell>
        <mxCell id="IGD-j1G_IqfU7hNhVimZ-44" value="TRANSACTION SERVER&lt;br&gt;" style="text;html=1;resizable=0;autosize=1;align=center;verticalAlign=middle;points=[];fillColor=none;strokeColor=none;rounded=0;" vertex="1" parent="1">
          <mxGeometry x="330" y="330" width="150" height="20" as="geometry" />
        </mxCell>
        <mxCell id="IGD-j1G_IqfU7hNhVimZ-45" value="DATABASE SERVER" style="text;html=1;resizable=0;autosize=1;align=center;verticalAlign=middle;points=[];fillColor=none;strokeColor=none;rounded=0;" vertex="1" parent="1">
          <mxGeometry x="555" y="330" width="130" height="20" as="geometry" />
        </mxCell>
        <mxCell id="IGD-j1G_IqfU7hNhVimZ-47" value="REPORTING AND REPLICATION SERVER" style="text;html=1;resizable=0;autosize=1;align=center;verticalAlign=middle;points=[];fillColor=none;strokeColor=none;rounded=0;" vertex="1" parent="1">
          <mxGeometry x="245" y="510" width="250" height="20" as="geometry" />
        </mxCell>
        <mxCell id="IGD-j1G_IqfU7hNhVimZ-48" value="TEST SERVER" style="text;html=1;resizable=0;autosize=1;align=center;verticalAlign=middle;points=[];fillColor=none;strokeColor=none;rounded=0;" vertex="1" parent="1">
          <mxGeometry x="570" y="490" width="100" height="20" as="geometry" />
        </mxCell>
        <mxCell id="IGD-j1G_IqfU7hNhVimZ-50" value="STANBIC MIRROR SERVER" style="text;html=1;resizable=0;autosize=1;align=center;verticalAlign=middle;points=[];fillColor=none;strokeColor=none;rounded=0;" vertex="1" parent="1">
          <mxGeometry x="705" y="340" width="170" height="20" as="geometry" />
        </mxCell>
      </root>
    </mxGraphModel>
  </diagram>
</mxfile>
